<svg width="12" height="83" viewBox="0 0 12 83" fill="none" xmlns="http://www.w3.org/2000/svg">
<path d="M0.200446 10.35H2.80714L3.6493 3.105C3.76136 2.14093 3.90668 1.35844 4.07373 0.819509C4.24079 0.280576 4.425 0 4.61177 0L6.61692 0C6.80369 0 6.9879 0.280576 7.15496 0.819509C7.32201 1.35844 7.46733 2.14093 7.57939 3.105L8.42155 10.35H11.0282C11.0814 10.35 11.1324 10.4863 11.17 10.7289C11.2076 10.9716 11.2288 11.3006 11.2288 11.6438V14.2313C11.2288 14.5744 11.2076 14.9034 11.17 15.1461C11.1324 15.3887 11.0814 15.525 11.0282 15.525H10.5545L9.72239 75.7329C9.69548 77.6633 9.55762 79.4589 9.33592 80.7666C9.11422 82.0744 8.82471 82.7997 8.52432 82.8H2.70437C2.40398 82.7997 2.11448 82.0744 1.89277 80.7666C1.67107 79.4589 1.53321 77.6633 1.5063 75.7329L0.674162 15.525H0.200446C0.147266 15.525 0.0962639 15.3887 0.0586605 15.1461C0.0210571 14.9034 -6.86646e-05 14.5744 -6.86646e-05 14.2313V11.6438C-6.86646e-05 11.3006 0.0210571 10.9716 0.0586605 10.7289C0.0962639 10.4863 0.147266 10.35 0.200446 10.35ZM6.93774 6.21C6.90025 5.88957 6.85179 5.62941 6.79613 5.44986C6.74048 5.27032 6.67914 5.17625 6.61692 5.175H4.61177C4.54955 5.17625 4.48821 5.27032 4.43256 5.44986C4.3769 5.62941 4.32844 5.88957 4.29095 6.21L3.80971 10.35H7.41898L6.93774 6.21ZM2.30585 75.2639C2.31411 75.9087 2.3597 76.5097 2.43356 76.9472C2.50741 77.3848 2.60411 77.6268 2.70437 77.625H8.52432C8.62458 77.6268 8.72128 77.3848 8.79513 76.9472C8.86899 76.5097 8.91458 75.9087 8.92284 75.2639L9.74996 15.525H1.47873L2.30585 75.2639Z" fill="#FEAF00"/>
</svg>
